<svg width="201" height="145" viewBox="0 0 201 145" fill="none" xmlns="http://www.w3.org/2000/svg">
<path d="M119.706 142.71L116.918 144.326L114.273 143.285L114.18 140.383L115.77 138.849L119.294 137.898L121.149 137.979L121.87 139.273L120.453 140.762L119.706 142.71ZM175.571 19.6532L181.186 21.2315L185.007 24.705L186.312 29.2201L191.215 29.2258L194.011 27.3408L199.343 25.9228L197.647 30.2272L196.394 31.9577L195.288 37.0645L193.119 41.5143L189.205 40.7098L186.435 42.3121L187.286 46.1542L186.821 51.3651L185.173 51.483L185.193 53.6907L183.109 51.1225L181.828 53.5602L176.846 55.4201L177.35 57.6805L174.561 57.5248L173.03 56.1835L170.813 59.2095L167.258 61.4802L164.631 64.1664L160.121 65.3761L157.747 67.3092L154.272 68.432L155.987 66.5229L155.311 64.908L157.866 62.0994L156.163 59.8905L153.351 61.3807L149.709 64.2923L147.721 66.9704L144.558 67.1684L142.911 69.0866L144.613 71.8437L147.252 72.5098L147.361 74.3216L149.913 75.4947L153.529 72.6185L156.393 74.1911L158.479 74.2975L159.002 76.3988L154.435 77.5136L152.926 79.6561L149.789 81.6338L148.133 84.3726L151.607 86.506L152.875 90.2908L154.837 93.777L157.028 96.6714L156.975 99.448L154.95 100.463L155.722 102.437L157.62 103.582L157.124 106.568L156.305 109.45L154.502 109.775L152.147 113.674L149.535 118.351L146.539 122.558L142.104 125.783L137.617 128.705L133.982 129.102L132.01 130.636L130.894 129.515L129.07 131.23L124.561 132.951L121.147 133.476L120.046 137.083L118.259 137.282L117.413 134.807L118.177 133.483L113.849 132.386L112.324 132.944L109.077 132.054L107.541 130.655L108.05 128.666L105.102 128.033L103.546 126.731L100.797 128.579L97.6603 128.979L95.0877 128.96L93.3562 129.804L91.6846 130.31L92.1724 134.239L90.4524 134.145L90.1625 133.34L90.0647 131.921L87.6982 132.921L86.3015 132.29L83.9061 130.999L84.845 128.129L82.8028 127.457L82.0332 124.252L78.6277 124.831L79.0154 120.671L82.07 117.718L82.2 114.781L82.1045 112.036L80.6963 111.178L79.6183 109.049L77.7303 109.318L74.2524 108.776L75.3419 107.249L73.8302 104.976L71.5304 106.516L68.8244 105.618L65.106 107.941L62.17 110.637L59.5676 111.089L58.1548 110.117L56.4521 110.029L54.1464 109.191L52.4035 110.11L50.2705 112.789L50.0001 109.95L48.0328 110.711L44.2707 110.357L40.6213 109.528L38.0039 107.933L35.4971 107.216L34.4144 105.461L32.6024 104.936L29.3453 102.539L26.7591 101.403L25.4222 102.288L20.9399 99.6952L17.7703 97.3318L16.866 93.1784L19.1808 93.6877L19.2866 91.7489L18.0039 89.7941L18.3306 86.6536L14.8631 82.0882L9.55812 80.4973L8.60319 77.4518L6.22055 75.5897L5.64643 74.4372L5.16212 72.1344L5.27482 70.5539L3.31554 69.6245L2.25598 70.0354L1.43799 66.2311L2.35605 65.2823L1.91085 64.3095L4.99071 62.334L7.22035 61.5123L10.6349 62.0754L11.8557 59.3812L15.9939 58.8776L17.1433 57.186L22.2273 54.8616L22.6806 53.8853L22.4229 51.4075L24.6364 50.2687L21.7326 42.5387L28.1236 40.7281L29.7757 39.714L32.1019 31.4027L38.5021 32.9512L40.2969 30.8224L40.451 26.0315L43.1305 25.5794L45.5857 22.3393L46.8489 21.9365L47.6957 25.3357L50.4062 27.8879L55.0071 29.679L57.2333 33.4776L55.9918 38.8888L57.1527 40.8677L60.9861 41.6437L65.3304 42.2755L69.2282 45.0772L71.2209 45.5728L72.6901 49.6564L74.5838 52.2532L78.1399 52.1525L84.7978 53.1276L89.088 52.5234L92.2725 53.17L97.0448 55.792L100.948 55.7886L102.376 57.1208L106.132 54.8158L111.343 53.3142L116.177 53.1494L119.946 51.6192L122.261 49.2718L124.52 47.7874L123.997 46.3224L122.966 44.6068L124.661 41.702L126.475 42.1118L129.791 43.0274L133.006 40.6228L137.924 38.8534L140.288 35.8067L142.559 34.4837L147.244 33.8645L149.79 34.3898L150.143 32.7269L147.22 29.4227L144.631 27.8971L142.152 29.6573L138.97 28.9168L137.144 29.5211L136.312 27.5686L138.591 22.7296L140.162 19.0134L144.033 20.8812L148.58 17.7464L148.55 15.5387L151.462 10.1309L153.256 8.47136L153.216 5.58492L151.447 4.33169L154.11 1.68446L158.118 0.717355L162.396 0.572021L167.223 2.16744L170.056 4.12568L172.05 9.40298L173.259 11.6199L174.383 14.7455L175.571 19.6532Z" fill="#FFE68E" stroke="#505050"/>
</svg>
