<svg width="64" height="61" viewBox="0 0 64 61" fill="none" xmlns="http://www.w3.org/2000/svg">
<path d="M61.2377 6.15288L61.0421 9.88624L62.3353 10.3177L61.2975 11.4496L60.0585 12.2977L58.8251 13.9595L58.1475 15.4417L57.9646 18.0008L57.2179 19.2185L57.1904 21.622L56.263 22.5113L56.1434 24.4088L55.7004 24.6549L55.4025 26.4003L56.2136 27.8515L56.4184 31.7051L56.9982 34.6487L56.6761 36.314L57.3215 38.1749L59.1922 39.9718L60.934 44.0257L59.6639 43.6983L55.3311 44.242L54.4659 44.6276L53.5467 46.6866L54.2693 48.1127L53.6963 51.9479L53.2971 55.2109L54.168 55.7911L56.4229 57.0593L57.3088 56.4664L57.578 59.9915L55.1091 59.964L53.7849 58.1637L52.5964 56.772L50.124 56.3165L49.4004 54.6089L47.4284 55.6366L44.8444 55.1823L43.7664 53.7047L41.7186 53.4048L40.2068 53.4838L40.0228 52.4732L38.9091 52.392L37.4398 52.2008L35.4426 52.6872L34.0402 52.6071L33.2417 52.9047L33.4143 49.0466L32.3386 47.846L32.1016 45.8603L32.5767 43.9169L31.9233 42.674L31.8634 40.6505L27.9495 40.678L28.2314 39.5209L26.585 39.5335L26.4113 40.0897L24.4106 40.2144L23.6006 42.088L23.1174 42.8937L21.3353 42.4394L20.2711 42.8914L18.1381 43.1524L16.9025 41.4688L16.1604 40.4296L15.2354 38.5046L14.4393 36.1148L4.92013 36.0725L3.78923 36.457L2.85386 36.3975L1.52277 36.8279L1.07178 35.8344L1.89206 35.4957L1.99215 34.0994L2.52025 33.2764L3.69373 32.6046L4.54164 32.9297L5.64494 31.7062L7.40178 31.7371L7.60886 32.6424L8.81455 33.2089L10.7117 31.2049L12.5916 29.6438L13.4062 28.6218L13.298 25.9951L14.6993 22.8958L16.1777 21.2535L18.3015 19.7175L18.6719 18.7001L18.7525 17.5315L19.2783 16.4259L19.1091 14.6188L19.5106 11.793L20.1423 9.8027L21.1075 8.09736L21.2996 6.16887L21.5896 3.94054L22.8448 2.31763L24.5728 1.28759L27.227 2.37484L29.2818 3.55371L31.6414 3.86845L34.0482 4.49218L35.0123 2.56143L35.4553 2.31536L36.9256 2.63694L40.5163 1.04037L41.7898 1.71677L42.8334 1.62062L43.3177 0.842365L44.5165 0.568848L46.9429 0.905304L49.0126 0.978582L50.0768 0.639785L52.0315 3.28016L53.48 3.66814L54.3428 3.13137L55.835 3.34083L57.631 2.66558L58.3972 4.02981L61.2377 6.15288Z" fill="#FFE68E" stroke="#505050"/>
</svg>
