<svg width="333" height="272" viewBox="0 0 333 272" fill="none" xmlns="http://www.w3.org/2000/svg">
<path d="M126.69 122.233L124.916 120.134L122.073 118.338L121.161 113.352L117.001 108.624L115.263 102.973L112.166 102.58L107.037 102.431L103.257 100.675L96.5872 94.2162L93.4982 93.0145L87.855 90.7335L83.3888 91.2806L77.045 88.3163L73.2104 85.5294L69.6301 86.9177L70.2951 91.4133L68.5118 91.8231L64.7797 93.1518L61.9402 95.284L58.3657 96.6151L57.9043 92.9012L59.3551 86.571L62.7824 84.544L61.8977 82.8776L57.7858 86.5606L55.5838 90.8766L50.9358 95.3939L53.2966 98.4234L50.2478 102.829L46.7803 105.355L43.552 107.177L42.7535 109.794L37.7179 112.809L36.6985 115.513L32.9238 117.948L30.7102 117.511L27.6994 119.087L24.4263 120.998L21.7433 122.859L16.2072 124.435L15.7021 123.509L19.2306 120.913L22.3864 119.181L25.8252 116.08L29.8266 115.433L31.4178 113.072L35.8886 109.578L36.6088 108.397L38.9903 106.299L39.5471 101.721L41.1877 98.0881L37.4682 99.9605L36.4282 98.8995L34.6817 101.136L32.5752 98.0114L31.7054 100.227L30.4997 97.1427L27.2749 99.6229L25.2949 99.6183L25.0165 95.9192L25.5998 93.6074L23.522 91.339L19.3273 92.5636L16.6052 89.5524L14.3986 87.997L14.3848 84.2774L11.8986 81.4356L13.1469 77.5385L15.7769 73.6838L16.9274 70.0741L19.5378 69.5545L21.7514 70.6898L24.3538 67.2483L26.6962 67.8675L29.1548 65.63L28.5554 62.2914L26.7491 60.9604L29.1375 58.0774L27.1564 58.1632L23.7337 59.7953L22.7511 61.4365L20.2074 59.7976L15.6446 60.6319L10.9207 58.8431L9.56654 55.8055L5.48461 51.3351L10.0175 48.0538L17.2127 44.1545H19.8646L19.4251 48.1419L26.2337 47.8341L23.6152 42.8681L19.6471 39.7527L17.353 35.5879L14.2582 31.9644L9.8254 29.2347L11.6305 24.6247L17.353 24.3351L21.4246 20.2321L22.192 15.749L25.487 11.2729L28.629 10.1799L34.7438 5.87883L37.7098 6.5335L42.6742 1.25848L47.5545 3.35406L49.8889 7.78215L51.3224 5.896L56.7734 6.48313L56.5801 8.71606L61.5157 10.3504L64.8061 9.39131L71.6021 12.4071L77.8066 13.2952L80.2905 14.5176L84.583 12.9896L89.476 15.8074L92.9804 17.1064L92.9586 48.7497L92.9413 89.2994L96.1178 89.4906L99.2598 91.2714L101.512 94.0594L104.378 98.1751L107.517 94.6798L110.755 92.6277L112.467 95.8952L114.641 98.4463L117.594 101.221L119.611 105.563L122.909 112.294L128.394 115.961L128.483 119.536L126.69 122.233ZM329.095 161.644L327.663 160.285L325.5 161.086L324.428 159.847L321.967 163.391L320.983 166.994L319.838 169.077L318.468 169.782L317.436 170.011L317.113 171.13L311.168 171.134L306.267 171.165L304.812 171.996L301.51 175.12L301.84 175.743L302.031 177.466L299.612 178.92L296.969 178.556L294.433 178.392L292.905 178.895L293.192 180.211V180.213L293.255 180.64L290.476 183.232L288.042 184.479L286.382 185.058L284.471 186.242L282.136 186.81L280.527 186.591L278.538 185.708L279.644 184.049L280.354 182.538L281.87 180.144L281.709 178.346L281.128 175.782L279.935 175.338L277.935 177.289L277.294 177.252L277.129 176.138L278.903 174.357L279.197 172.313L278.935 170.259L276.548 168.483L273.806 167.568L273.355 169.305L272.644 169.768L272.074 172.004L271.774 170.487L270.485 171.571L269.679 173.083L268.838 175.276L268.677 177.158L269.747 179.878L269.659 182.748L268.349 184.849L267.696 185.442L266.825 185.914L265.729 185.938L265.432 185.648L264.563 183.388L264.538 182.264L264.624 181.192L264.219 179.051L264.832 176.555L265.561 173.45L267.235 169.977L266.749 169.993L264.379 172.903L263.942 172.372L265.206 170.745L267.13 167.8L269.324 167.387L271.84 166.466L274.377 166.952L274.485 166.972L277.327 166.557L275.722 164.715L274.857 164.572L273.873 164.385L273.195 163.08L270.026 163.487L267.163 164.523L264.891 162.748L263.063 162.152L264.1 159.668L261.252 161.23L258.663 162.75L256.173 163.937L254.195 162.334L250.963 163.308L250.974 162.622L253.163 160.642L255.454 158.749L258.744 157.175L254.776 155.929L252.163 156.553L249.034 155.062L245.74 154.292L243.487 153.995L242.484 153.173L241.911 150.489L240.819 150.513L240.81 152.395L234.134 152.391L223.097 152.395H212.135H202.452H192.774H183.258H173.426H170.255H160.679H151.517L152.615 156.362L153.13 160.264L152.333 161.508L150.614 157.032L145.949 155.401L145.559 156.34L146.499 158.558L147.518 162.592L148.1 168.791L147.708 172.901L147.316 176.947L146.055 181.083L147.084 184.4L147.197 188.064L146.49 191.561L148.208 193.841L148.654 197.211L151.15 200.635L152.573 201.972L152.458 202.907L155.145 208.459L158.274 212.41L158.666 214.546L159.489 215.172L162.486 215.553L163.64 216.598L165.45 216.791L165.803 217.896L167.308 218.355L169.398 220.552L169.941 222.493L173.607 222.202L177.704 221.791L177.401 222.532L182.272 224.368L189.631 227.012L196.046 226.986L198.603 226.984L198.61 225.438L204.198 225.439L205.374 226.769L207.024 227.95L208.941 229.586L210.01 231.519L210.814 233.544L212.481 234.65L215.159 235.747L217.191 232.853L219.828 232.781L222.101 234.245L223.72 236.745L224.835 238.872L226.737 240.929L227.447 243.441L228.35 245.119L230.867 246.221L233.157 247.002L234.415 246.895L233.801 245.688L233.64 243.977L233.673 241.504L234.415 239.883L236.176 238.156L239.382 236.589L242.318 233.88L245.032 233.022L247.039 232.764L249.386 233.615L252.199 233.157L254.607 235.093L256.948 235.208L258.158 234.514L259.356 235.054L259.97 234.574L259.286 233.85L259.338 232.36L258.757 231.38L260.09 230.804L262.55 230.548L265.412 230.957L269.058 230.492L271.081 231.407L272.647 233.126L273.224 233.309L276.479 231.638L277.737 232.203L280.252 235.273L281.156 237.277L280.493 239.682L280.977 241.092L282.477 243.835L284.187 246.896L285.412 247.711L285.921 249.261L287.509 249.689L288.473 249.244L289.277 247.084L289.417 245.703L289.518 243.297L287.991 239.124L287.972 237.557L286.539 234.979L285.462 231.837L284.891 229.267L285.389 226.617L286.909 224.391L288.728 222.593L292.269 220.125L292.731 218.842L294.363 217.432L295.974 217.186L298.094 214.92L301.432 213.769L303.482 210.869L303.029 206.914L302.694 205.535L301.768 205.259L301.63 201.43L299.409 200.122L301.541 200.759L300.853 198.173L301.474 196.396L301.853 199.8L303.5 201.352L302.503 204.097L302.796 204.256L304.612 201.034L305.646 199.453L305.598 197.908L304.797 197.177L304.126 194.955L305.185 195.989L305.893 196.204L306.133 197.262L308.48 194.081L309.176 191.08L308.227 190.888L309.209 189.721L309.114 190.238L311.168 190.23L315.684 188.964L314.728 188.161L309.99 188.958L312.679 187.73L314.554 187.52L315.958 187.307L318.344 186.563L319.894 186.646L322.072 185.954L322.329 184.729L321.362 183.774L321.7 185.344L320.361 185.236L319.297 182.953L319.329 180.649L319.875 179.666L321.583 177.053L324.989 175.742L328.304 174.203L331.748 172.029L331.191 170.547L329.083 167.97L329.095 161.644ZM53.4876 103.904L51.7653 104.822L48.835 106.949L49.3343 109.72L50.9841 111.232L54.2055 108.994L56.9966 106.173L55.6298 104.311L53.4876 103.904ZM1 71.2163L3.3493 69.7765L3.61506 69.0017L1 68.2211V71.2163ZM10.7815 88.7982L7.59575 89.9049L9.55388 91.6491L11.6685 92.8417L13.6485 91.8494L13.3401 89.3841L10.7815 88.7982ZM122.773 125.995L119.678 126.431L118.161 125.721L117.969 127.458L118.566 129.832L120.194 131.498L121.386 133.94L123.329 136.34L124.615 136.35L121.808 132.113L122.773 125.995ZM43.7188 264.119L42.5718 263.794L42.2565 264.087L42.2853 264.3L42.6558 264.578L43.2114 265.296L44.2929 265.052L44.5621 264.643L43.7188 264.119ZM40.2731 263.502L42.0011 263.602L42.1012 263.232L40.5135 263.085L40.2731 263.502ZM47.0495 267.266L46.4765 266.972L45.2409 266.399L44.9958 266.336L44.8083 266.653L45.0304 267.32L44.4701 267.873L44.309 268.251L44.8428 269.483L44.7508 270.427L45.5515 270.91L46.0232 270.346L47.0552 269.819L48.3162 269.096L48.3932 268.909L47.5718 267.722L47.0495 267.266ZM38.0158 261.38L37.153 261.854L37.2784 261.991L37.6879 262.768L38.8108 262.889L39.0421 262.933L39.2169 262.735L38.285 261.602L38.0158 261.38ZM32.9479 259.594L32.4555 259.931L32.2887 260.182L33.3748 260.809L33.7579 260.469L33.6911 259.667L32.9479 259.594Z" fill="#FFE68E" stroke="#505050"/>
</svg>
