<svg width="41" height="40" viewBox="0 0 41 40" fill="none" xmlns="http://www.w3.org/2000/svg">
<circle cx="20.3545" cy="20" r="20" fill="black"/>
<path d="M30.0894 11.9968C30.0894 12.9253 29.3321 13.677 28.3966 13.677C27.4611 13.677 26.7012 12.9227 26.7012 11.9968C26.7012 11.0682 27.4611 10.314 28.3966 10.314C29.3321 10.314 30.0894 11.0656 30.0894 11.9968Z" fill="white"/>
<path d="M26.0533 33.9435H14.6545C9.59712 33.9435 5.48047 29.8574 5.48047 24.8375V14.8681C5.48047 9.8482 9.59712 5.76208 14.6545 5.76208H26.0533C31.1106 5.76208 35.2273 9.8482 35.2273 14.8681V24.8375C35.2273 29.8574 31.1106 33.9435 26.0533 33.9435ZM14.6545 7.78563C10.7187 7.78563 7.51914 10.9614 7.51914 14.8681V24.8375C7.51914 28.7442 10.7187 31.92 14.6545 31.92H26.0533C29.9865 31.92 33.1886 28.7442 33.1886 24.8375V14.8681C33.1886 10.964 29.9865 7.78563 26.0533 7.78563H14.6545Z" fill="white"/>
<path d="M20.3546 27.9589C15.8502 27.9589 12.1895 24.3227 12.1895 19.8517C12.1895 15.3806 15.8528 11.7471 20.3546 11.7471C24.8565 11.7471 28.5198 15.3832 28.5198 19.8517C28.5198 24.3227 24.8591 27.9589 20.3546 27.9589ZM20.3546 13.7706C16.9769 13.7706 14.2255 16.499 14.2255 19.8543C14.2255 23.2069 16.9743 25.9353 20.3546 25.9353C23.7323 25.9353 26.4811 23.2069 26.4811 19.8543C26.4811 16.499 23.7323 13.7706 20.3546 13.7706Z" fill="white"/>
</svg>
